<?xml version="1.0" encoding="utf-8"?><svg viewBox="0 0 148 148" xmlns="http://www.w3.org/2000/svg" xmlns:xlink="http://www.w3.org/1999/xlink"><style>:root>svg{display:none}:root>svg:target{display:block}</style><svg fill="none" viewBox="0 0 32 32" id="icon-board" xmlns="http://www.w3.org/2000/svg"><path fill-rule="evenodd" clip-rule="evenodd" d="M16 0a1 1 0 0 1 .894.552l.724 1.45H27c1.657 0 3 1.343 3 3.001v15.01H2V5.004a3.001 3.001 0 0 1 3-3.002h9.38l.726-1.449A1 1 0 0 1 16 0ZM1 22.015a1 1 0 0 0 0 2.002h5.72l-1.69 6.762a1 1 0 0 0 1.94.485l.81-3.244h16.44l.81 3.244a1 1 0 0 0 1.94-.485l-1.69-6.762H31a1 1 0 0 0 0-2.002H1Zm7.28 4.003.5-2.001h14.44l.5 2.001H8.28Z" fill="#fff"/></svg><svg fill="none" viewBox="0 0 48 48" id="icon-calendar-check" xmlns="http://www.w3.org/2000/svg"><path fill-rule="evenodd" clip-rule="evenodd" d="M10.5 0A1.5 1.5 0 0 1 12 1.5V3h24V1.5a1.5 1.5 0 0 1 3 0V3h3a6 6 0 0 1 6 6v33a6 6 0 0 1-6 6H6a6 6 0 0 1-6-6V9a6 6 0 0 1 6-6h3V1.5A1.5 1.5 0 0 1 10.5 0Zm29.862 9H7.635C6.735 9 6 9.672 6 10.5v3c0 .828.732 1.5 1.635 1.5h32.73c.9 0 1.635-.672 1.635-1.5v-3c0-.828-.732-1.5-1.638-1.5Zm-7.8 15.438a1.502 1.502 0 0 1 0 2.124l-9 9a1.5 1.5 0 0 1-2.124 0l-4.5-4.5a1.502 1.502 0 1 1 2.124-2.124l3.438 3.441 7.938-7.941a1.502 1.502 0 0 1 2.124 0Z" fill="#fff"/></svg><svg fill="none" viewBox="0 0 32 26" id="icon-case" xmlns="http://www.w3.org/2000/svg"><path fill-rule="evenodd" clip-rule="evenodd" d="M13 0a3 3 0 0 0-3 3v1H3a3 3 0 0 0-3 3v2.768l15.228 4.06a3 3 0 0 0 1.544 0L32 9.768V7a3 3 0 0 0-3-3h-7V3a3 3 0 0 0-3-3h-6Zm0 2h6a1 1 0 0 1 1 1v1h-8V3a1 1 0 0 1 1-1ZM3 26a3 3 0 0 1-3-3V11.7l15.742 4.194a1 1 0 0 0 .516 0L32 11.7V23a3 3 0 0 1-3 3H3Z" fill="#fff"/></svg><svg fill="none" viewBox="0 0 16 14" id="icon-check" xmlns="http://www.w3.org/2000/svg"><path fill-rule="evenodd" clip-rule="evenodd" d="M0 5.92c1.84.426 4.208 1.25 6 2.545C8.105 5.335 11.885 2.406 16 0c-3.907 4.274-7.14 9.124-9.333 14C4.899 11.213 2.969 8.619 0 5.92Z" fill="#fff"/></svg><svg fill="none" viewBox="0 0 148 148" id="icon-play" xmlns="http://www.w3.org/2000/svg"><circle cx="74" cy="74" r="73.5" stroke="#fff" stroke-opacity=".504"/><path d="M86.776 72.382a2 2 0 0 1 0 3.236l-16.6 12.072c-1.322.961-3.176.017-3.176-1.617V61.928c0-1.635 1.854-2.58 3.176-1.618l16.6 12.072Z" fill="#fff"/></svg><svg fill="none" viewBox="0 0 12 12" id="icon-plus" xmlns="http://www.w3.org/2000/svg"><path fill-rule="evenodd" clip-rule="evenodd" d="M7 0H5v5H0v2h5v5h2V7h5V5H7V0Z" fill="#EF6C57"/></svg></svg>