<?xml version="1.0" encoding="utf-8"?><svg viewBox="0 0 32 32" xmlns="http://www.w3.org/2000/svg" xmlns:xlink="http://www.w3.org/1999/xlink"><style>:root>svg{display:none}:root>svg:target{display:block}</style><svg fill="none" viewBox="0 0 32 32" id="icon-board" xmlns="http://www.w3.org/2000/svg"><path fill-rule="evenodd" clip-rule="evenodd" d="M16 0a1 1 0 0 1 .894.552l.724 1.45H27c1.657 0 3 1.343 3 3.001v15.01H2V5.004a3.001 3.001 0 0 1 3-3.002h9.38l.726-1.449A1 1 0 0 1 16 0ZM1 22.015a1 1 0 0 0 0 2.002h5.72l-1.69 6.762a1 1 0 0 0 1.94.485l.81-3.244h16.44l.81 3.244a1 1 0 0 0 1.94-.485l-1.69-6.762H31a1 1 0 0 0 0-2.002H1Zm7.28 4.003.5-2.001h14.44l.5 2.001H8.28Z" fill="#fff"/></svg><svg fill="none" viewBox="0 0 32 26" id="icon-case" xmlns="http://www.w3.org/2000/svg"><path fill-rule="evenodd" clip-rule="evenodd" d="M13 0a3 3 0 0 0-3 3v1H3a3 3 0 0 0-3 3v2.768l15.228 4.06a3 3 0 0 0 1.544 0L32 9.768V7a3 3 0 0 0-3-3h-7V3a3 3 0 0 0-3-3h-6Zm0 2h6a1 1 0 0 1 1 1v1h-8V3a1 1 0 0 1 1-1ZM3 26a3 3 0 0 1-3-3V11.7l15.742 4.194a1 1 0 0 0 .516 0L32 11.7V23a3 3 0 0 1-3 3H3Z" fill="#fff"/></svg><svg fill="none" viewBox="0 0 12 12" id="icon-plus" xmlns="http://www.w3.org/2000/svg"><path fill-rule="evenodd" clip-rule="evenodd" d="M7 0H5v5H0v2h5v5h2V7h5V5H7V0Z" fill="#EF6C57"/></svg></svg>